# AST/ASF file generated using VICON BodyLanguage
# -----------------------------------------------
:version 1.10
:name VICON
:units
  mass 1.0
  length 0.45
  angle deg
:documentation
   .ast/.asf automatically generated from VICON data using
   VICON BodyBuilder and BodyLanguage model FoxedUp or BRILLIANT.MOD
:root
   order TX TY TZ RX RY RZ
   axis XYZ
   position 0 0 0  
   orientation 0 0 0 
:bonedata
  begin
     id 1 
     name lhipjoint
     direction 0.64773 -0.699417 0.302095 
     length 2.48597 
     axis 0 0 0  XYZ
  end
  begin
     id 2 
     name lfemur
     direction 0.34202 -0.939693 0  
     length 6.71947  
     axis 0 0 20  XYZ
    dof rx ry rz
    limits (-160.0 20.0)
           (-70.0 70.0)
           (-60.0 70.0)
  end
  begin
     id 3 
     name ltibia
     direction 0.34202 -0.939693 0   
     length 8.08777   
     axis 0 0 20   XYZ
    dof rx
    limits (-10.0 170.0)
  end
  begin
     id 4 
     name lfoot
     direction 0.0808503 -0.222134 0.971658   
     length 2.08264   
     axis -90 7.62852e-016 20   XYZ
    dof rx rz
    limits (-45.0 90.0)
           (-70.0 20.0)
  end
  begin
     id 5 
     name ltoes
     direction 1.53502e-011 -4.22007e-011 1   
     length 1.04662   
     axis -90 7.62852e-016 20   XYZ
    dof rx
    limits (-90.0 20.0)
  end
  begin
     id 6 
     name rhipjoint
     direction -0.610924 -0.726792 0.313919   
     length 2.39233  
     axis 0 0 0  XYZ 
  end
  begin
     id 7 
     name rfemur
     direction -0.34202 -0.939693 0   
     length 6.96955   
     axis 0 0 -20   XYZ
    dof rx ry rz
    limits (-160.0 20.0)
           (-70.0 70.0)
           (-70.0 60.0)
  end
  begin
     id 8 
     name rtibia
     direction -0.34202 -0.939693 0   
     length 8.19584   
     axis 0 0 -20   XYZ
    dof rx
    limits (-10.0 170.0)
 end
 begin
     id 9 
     name rfoot
     direction -0.077777 -0.213691 0.9738   
     length 2.07539  
     axis -90 -7.62852e-016 -20   XYZ
    dof rx rz
    limits (-45.0 90.0)
           (-20.0 70.0)
  end
  begin
     id 10 
     name rtoes
     direction -1.53558e-011 -4.22006e-011 1   
     length 1.04381   
     axis -90 -7.62852e-016 -20   XYZ
    dof rx
    limits (-90.0 20.0)
  end
  begin
     id 11 
     name lowerback
     direction -0.00971646 0.996074 0.0879841   
     length 1.67643   
     axis 0 0 0   XYZ
    dof rx ry rz
    limits (-20.0 45.0)
           (-30.0 30.0)
           (-30.0 30.0)
  end
  begin
     id 12 
     name upperback
     direction 0.0127391 0.991676 0.128127   
     length 1.63741   
     axis 0 0 0   XYZ
    dof rx ry rz
    limits (-20.0 45.0)
           (-30.0 30.0)
           (-30.0 30.0)
  end
  begin
     id 13 
     name thorax
     direction 0.0167583 0.996049 0.0872067   
     length 1.65931   
     axis 0 0 0   XYZ
    dof rx ry rz
    limits (-20.0 45.0)
           (-30.0 30.0)
           (-30.0 30.0)
  end
  begin
     id 14 
     name lowerneck
     direction -0.0317829 0.998312 0.0486079   
     length 1.79021   
     axis 0 0 0   XYZ
    dof rx ry rz
    limits (-20.0 45.0)
           (-30.0 30.0)
           (-30.0 30.0)
  end
  begin
     id 15 
     name upperneck
     direction 0.0896851 0.972452 -0.215159   
     length 1.78797   
     axis 0 0 0   XYZ
    dof rx ry rz
    limits (-20.0 45.0)
           (-30.0 30.0)
           (-30.0 30.0)
  end
  begin
     id 16
     name head
     direction 0.0310949 0.996503 -0.0775582  
     length 1.81549  
     axis 0 0 0   XYZ
    dof rx ry rz
    limits (-20.0 45.0)
           (-30.0 30.0)
           (-30.0 30.0)
  end
  begin
     id 17 
     name lclavicle
     direction 0.853638 0.502051 -0.138733  
     length 3.31627  
     axis 0 0 0   XYZ
    dof ry rz
    limits (-20.0 10.0)
           (0.0 20.0)
  end
  begin
     id 18 
     name lhumerus
     direction 1 -4.48962e-011 -1.41788e-018   
     length 5.54893   
     axis 180 -30 -90   XYZ
    dof rx ry rz
    limits (-60.0 90.0)
           (-90.0 90.0)
           (-90.0 90.0)
  end
  begin
     id 19
     name lradius
     direction 1 -4.48962e-011 -4.95754e-027   
     length 3.02898   
     axis 180 -30 -90   XYZ
    dof rx
    limits (-10.0 170.0)
  end
  begin
     id 20
     name lwrist
     direction 1 -4.48952e-011 -1.03764e-026   
     length 1.51449   
     axis 9.09556e-015 90 90   XYZ
    dof ry
    limits (-180.0 0.0)
 end
  begin
     id 21 
     name lhand
     direction 1 -4.4902e-011 -2.07528e-026   
     length 0.640951   
     axis 1.3242e-014 90 90   XYZ
    dof rx rz
    limits (-90.0 90.0)
           (-45.0 45.0)
  end
  begin
     id 22 
     name lfingers
     direction 1 -4.49014e-011 -4.15056e-026   
     length 0.516751   
     axis 2.64841e-014 90 90   XYZ
    dof rx
    limits (0.0 90.0)
  end
  begin
     id 23
     name lthumb
     direction 0.707107 -6.35008e-011 0.707107   
     length 0.741954   
     axis -90 45 2.85299e-015   XYZ
    dof rx rz
    limits (-45.0 45.0)
           (-45.0 45.0)
  end
  begin
     id 24 
     name rclavicle
     direction -0.888531 0.455324 -0.0565039   
     length 3.20126  
     axis 0 0 0   XYZ 
    dof ry rz
    limits (-10.0 20.0)
           (-20.0 0.0)
  end
  begin
     id 25 
     name rhumerus
     direction -1 -4.48946e-011 -8.98298e-028  
     length 5.3519   
     axis 180 30 90   XYZ
    dof rx ry rz
    limits (-90.0 60.0)
           (-90.0 90.0)
           (-90.0 90.0)
  end
  begin
     id 26 
     name rradius
     direction -1 -4.4899e-011 -3.18779e-027   
     length 3.02531   
     axis 180 30 90   XYZ
    dof rx
    limits (-10.0 170.0)
  end
  begin
     id 27 
     name rwrist
     direction -1 -4.4897e-011 -1.03764e-026   
     length 1.51266   
     axis 9.09556e-015 -90 -90   XYZ
    dof ry
    limits (-180.0 0.0)
  end
  begin
     id 28
     name rhand
     direction -1 -4.48941e-011 -2.07528e-026   
     length 0.78389   
     axis 1.3242e-014 -90 -90   XYZ
    dof rx rz
    limits (-90.0 90.0)
           (-45.0 45.0)
  end
  begin
     id 29
     name rfingers
     direction -1 -4.49012e-011 -4.15056e-026   
     length 0.631992   
     axis 2.64841e-014 -90 -90   XYZ
    dof rx
    limits (0.0 90.0)
  end
  begin
     id 30
     name rthumb
     direction -0.707107 -6.3496e-011 0.707107   
     length 0.907418   
     axis -90 -45 -2.85299e-015   XYZ
    dof rx rz
    limits (-45.0 45.0)
           (-45.0 45.0)
  end
:hierarchy
  begin
    root lhipjoint rhipjoint lowerback
    lhipjoint lfemur
    lfemur ltibia
    ltibia lfoot
    lfoot ltoes
    rhipjoint rfemur
    rfemur rtibia
    rtibia rfoot
    rfoot rtoes
    lowerback upperback
    upperback thorax
    thorax lowerneck lclavicle rclavicle
    lowerneck upperneck
    upperneck head
    lclavicle lhumerus
    lhumerus lradius
    lradius lwrist
    lwrist lhand lthumb
    lhand lfingers
    rclavicle rhumerus
    rhumerus rradius
    rradius rwrist
    rwrist rhand rthumb
    rhand rfingers
  end

#!OML:ASF E:\Style3\Style3.ASF
:FULLY-SPECIFIED
:DEGREES
195
root -1.33315 15.7882 0.467671 -131.953 67.3942 -186.565
lowerback 208.645 179.764 176.652
upperback -1.67347 -1.1534 -2.49533
thorax -17.2481 -0.272963 -0.460951
lowerneck 0.211062 -0.838489 -4.37626
upperneck -30.1879 2.32695 8.10932
head -9.64492 1.64925 3.29725
rclavicle 1.70955e-014 8.74653e-015
rhumerus -63.5465 27.3252 -80.7151
rradius 85.3165
rwrist -1.78472
rhand 32.1648 10.5272
rfingers 7.12502
rthumb 55.6419 -7.13677
lclavicle 1.70955e-014 8.74653e-015
lhumerus -60.2849 -12.8825 71.8058
lradius 101.638
lwrist 3.49784
lhand 23.3159 41.3999
lfingers 7.12502
lthumb 47.6106 63.7924
rfemur -90.8271 -13.4469 27.8201
rtibia 62.2966
rfoot -23.1916 -13.4071
rtoes -23.6285
lfemur -93.5263 -0.199167 -18.9527
ltibia 53.5049
lfoot -11.854 -14.5813
ltoes -9.60401
196
root -1.31758 15.8253 0.451973 -132.377 67.3761 -186.272
lowerback 207.731 179.699 176.747
upperback -1.73359 -0.99997 -2.48948
thorax -16.8727 -0.225641 -0.566396
lowerneck -0.0154975 -0.901748 -4.34588
upperneck -30.1876 2.30126 8.201
head -9.60024 1.63839 3.32557
rclavicle -4.48259e-014 3.68746e-014
rhumerus -63.0954 27.3217 -80.4094
rradius 84.9814
rwrist -2.10194
rhand 32.6648 10.7792
rfingers 7.12502
rthumb 56.0855 -6.54413
lclavicle -4.48259e-014 3.68746e-014
lhumerus -60.0355 -13.0116 72.0348
lradius 101.627
lwrist 3.5956
lhand 23.5166 41.3534
lfingers 7.12502
lthumb 47.7958 63.6609
rfemur -89.5795 -13.4063 27.602
rtibia 61.7625
rfoot -23.0495 -13.6832
rtoes -24.34
lfemur -92.4095 -0.241894 -18.7292
ltibia 53.0763
lfoot -11.9221 -14.3723
ltoes -9.68226
197
root -1.30193 15.8754 0.436707 -132.818 67.3016 -185.936
lowerback 206.989 179.567 176.687
upperback -1.9094 -0.803754 -2.31787
thorax -16.7095 -0.135302 -0.419497
lowerneck 0.0952889 -0.932699 -4.33525
upperneck -30.2417 2.25335 8.15435
head -9.63692 1.61373 3.31244
rclavicle -6.2319e-014 -5.72997e-014
rhumerus -62.8294 27.3733 -80.0272
rradius 84.6164
rwrist -2.59634
rhand 30.6442 11.0991
rfingers 7.12502
rthumb 54.2852 -7.54422
lclavicle -6.2319e-014 -5.72997e-014
lhumerus -60.0509 -13.04 72.5434
lradius 101.556
lwrist 3.53971
lhand 23.7592 41.4006
lfingers 7.12502
lthumb 48.0196 63.6043
rfemur -88.2765 -13.3858 27.3797
rtibia 61.2201
rfoot -23.0399 -13.7724
rtoes -23.5887
lfemur -91.2168 -0.315497 -18.4472
ltibia 52.671
lfoot -11.9519 -14.2119
ltoes -9.00864
198
root -1.28317 15.9279 0.419282 -133.48 67.306 -185.807
lowerback 206.448 179.551 176.87
upperback -2.20654 -0.739544 -2.42255
thorax -16.8005 -0.13319 -0.660463
lowerneck 0.0269003 -0.982275 -4.25659
upperneck -29.9515 2.21132 8.33399
head -9.51394 1.55794 3.36087
rclavicle -5.46658e-015 -4.18442e-014
rhumerus -62.7835 27.1316 -80.1338
rradius 84.2403
rwrist -2.89464
rhand 24.708 11.0432
rfingers 7.12502
rthumb 48.8929 -10.742
lclavicle -5.46658e-015 -4.18442e-014
lhumerus -60.2948 -13.3455 72.7341
lradius 101.603
lwrist 3.57718
lhand 23.7537 41.5161
lfingers 7.12502
lthumb 48.0145 63.7222
rfemur -86.909 -13.3785 27.0122
rtibia 60.6424
rfoot -23.0318 -13.8317
rtoes -22.8947
lfemur -89.9443 -0.442775 -18.2629
ltibia 52.2234
lfoot -12.1491 -13.9437
ltoes -9.79702
199
root -1.25878 15.9766 0.398906 -134.103 67.3759 -185.637
lowerback 205.811 179.495 176.973
upperback -2.47818 -0.634906 -2.4862
thorax -16.8055 -0.1051 -0.826594
lowerneck -0.0864406 -1.03422 -4.2457
upperneck -29.6535 2.16137 8.52016
head -9.37996 1.50753 3.42353
rclavicle -1.58034e-014 2.39536e-014
rhumerus -62.729 26.9376 -80.1768
rradius 83.8509
rwrist -2.93268
rhand 24.965 11.32
rfingers 7.12502
rthumb 49.129 -10.3483
lclavicle -1.58034e-014 2.39536e-014
lhumerus -60.4322 -13.5483 73.0665
lradius 101.517
lwrist 3.43814
lhand 23.7252 41.4987
lfingers 7.12502
lthumb 47.9883 63.717
rfemur -85.4897 -13.3629 26.6959
rtibia 60.0377
rfoot -22.9116 -14.0904
rtoes -23.8437
lfemur -88.6415 -0.571321 -18.042
ltibia 51.7639
lfoot -12.3668 -13.5898
ltoes -10.9163
200
root -1.23142 16.0323 0.377347 -134.933 67.3992 -185.587
lowerback 205.287 179.506 176.981
upperback -2.72926 -0.636307 -2.4607
thorax -16.8357 -0.108365 -0.801702
lowerneck -0.147793 -1.03724 -4.19748
upperneck -29.4546 2.15738 8.57334
head -9.29574 1.48773 3.43066
rclavicle -2.00773e-014 4.03533e-014
rhumerus -62.5597 26.9447 -80.2356
rradius 83.4235
rwrist -2.86385
rhand 25.0701 11.4348
rfingers 7.12502
rthumb 49.2256 -10.1853
lclavicle -2.00773e-014 4.03533e-014
lhumerus -60.5169 -13.3897 73.5116
lradius 101.201
lwrist 3.06595
lhand 23.7907 41.4544
lfingers 7.12502
lthumb 48.0486 63.6445
rfemur -83.9856 -13.4143 26.3345
rtibia 59.4784
rfoot -22.8496 -14.3162
rtoes -24.4294
lfemur -87.2345 -0.771929 -17.8471
ltibia 51.3869
lfoot -12.7483 -13.1974
ltoes -12.4307
201
root -1.20545 16.0805 0.357671 -135.412 67.4245 -185.37
lowerback 204.481 179.443 176.646
upperback -2.59128 -0.567919 -2.08057
thorax -16.9235 -0.0524656 -0.308328
lowerneck -0.396551 -0.972843 -4.39833
upperneck -29.2829 2.19167 8.43345
head -9.19013 1.5396 3.41071
rclavicle 3.47873e-014 -9.74045e-015
rhumerus -61.8981 27.3607 -79.7075
rradius 82.9536
rwrist -2.88519
rhand 25.0647 11.6721
rfingers 7.12502
rthumb 49.2205 -9.95046
lclavicle 3.47873e-014 -9.74045e-015
lhumerus -60.4406 -12.8198 74.2167
lradius 100.838
lwrist 2.61194
lhand 23.9703 41.1974
lfingers 7.12502
lthumb 48.2142 63.3097
rfemur -82.7453 -13.3368 26.0188
rtibia 58.9252
rfoot -22.801 -14.4314
rtoes -24.0047
lfemur -86.0585 -0.868788 -17.6551
ltibia 50.9993
lfoot -12.995 -12.9282
ltoes -13.1458
202
root -1.17772 16.0853 0.335949 -135.519 67.5527 -184.884
lowerback 203.413 179.341 176.422
upperback -2.77881 -0.42028 -1.82541
thorax -16.5168 0.0433228 0.0707162
lowerneck -0.682508 -0.917221 -4.64066
upperneck -29.0375 2.23606 8.40777
head -9.05297 1.58986 3.43661
rclavicle -1.93815e-014 -6.24184e-014
rhumerus -61.2376 27.9156 -79.1017
rradius 82.6115
rwrist -3.14492
rhand 25.2609 11.6737
rfingers 7.12502
rthumb 49.4006 -9.85816
lclavicle -1.93815e-014 -6.24184e-014
lhumerus -60.2091 -12.5068 74.6946
lradius 100.582
lwrist 2.53799
lhand 24.298 41.1733
lfingers 7.12502
lthumb 48.5158 63.1418
rfemur -81.6719 -13.0909 25.7523
rtibia 58.462
rfoot -22.7297 -14.6515
rtoes -24.1512
lfemur -85.1637 -0.796766 -17.49
ltibia 50.6922
lfoot -13.0727 -12.7315
ltoes -13.0793
203
root -1.14771 16.141 0.314577 -136.425 67.6359 -184.915
lowerback 202.823 179.285 176.127
upperback -2.9068 -0.377399 -1.6217
thorax -16.3193 0.0997133 0.464087
lowerneck -0.889909 -0.865535 -4.82861
upperneck -28.868 2.31126 8.46848
head -8.96083 1.64098 3.48286
rclavicle 1.83876e-014 3.27001e-014
rhumerus -60.6515 28.3571 -78.6214
rradius 82.3735
rwrist -3.41022
rhand 25.5612 11.4068
rfingers 7.12502
rthumb 49.6759 -9.98448
lclavicle 1.83876e-014 3.27001e-014
lhumerus -59.9939 -12.2737 75.1298
lradius 100.491
lwrist 2.77878
lhand 24.3028 41.6883
lfingers 7.12502
lthumb 48.5203 63.6547
rfemur -80.0785 -13.054 25.2801
rtibia 57.8184
rfoot -22.7785 -14.8016
rtoes -23.837
lfemur -83.6651 -0.994476 -17.385
ltibia 50.1524
lfoot -13.2423 -12.4138
ltoes -13.0302
204
root -1.11319 16.2166 0.296753 -137.92 67.5891 -185.326
lowerback 202.585 179.284 175.868
upperback -2.96768 -0.418077 -1.4699
thorax -16.2481 0.114649 0.804377
lowerneck -1.24357 -0.824964 -4.93383
upperneck -28.6145 2.38232 8.53635
head -8.81195 1.68598 3.51544
rclavicle -5.51627e-014 -3.99557e-014
rhumerus -60.0441 28.4739 -78.2574
rradius 82.121
rwrist -3.46327
rhand 25.8564 11.1996
rfingers 7.12502
rthumb 49.9463 -10.0513
lclavicle -5.51627e-014 -3.99557e-014
lhumerus -59.7357 -12.1338 75.5474
lradius 100.269
lwrist 2.97705
lhand 23.8373 41.8817
lfingers 7.12502
lthumb 48.0916 64.0517
rfemur -78.1664 -13.146 24.6473
rtibia 57.1072
rfoot -22.8905 -14.9114
rtoes -23.0665
lfemur -81.8098 -1.41239 -17.2773
ltibia 49.5148
lfoot -13.4081 -12.0825
ltoes -13.3822
205
root -1.07893 16.278 0.277378 -138.95 67.4899 -185.462
lowerback 202.151 179.318 175.921
upperback -3.174 -0.425301 -1.39655
thorax -16.2383 0.111245 0.861213
lowerneck -1.38183 -0.758632 -4.98916
upperneck -28.3347 2.46924 8.6022
head -8.69496 1.72166 3.53764
rclavicle -4.18442e-014 -3.77691e-015
rhumerus -59.665 28.4039 -78.05
rradius 81.8618
rwrist -3.58492
rhand 26.111 11.0924
rfingers 7.12502
rthumb 50.1792 -10.0358
lclavicle -4.18442e-014 -3.77691e-015
lhumerus -59.7094 -12.1261 75.876
lradius 100.11
lwrist 2.8608
lhand 23.8099 42.0988
lfingers 7.12502
lthumb 48.0663 64.2807
rfemur -76.412 -13.2087 24.2587
rtibia 56.2845
rfoot -22.7859 -15.17
rtoes -23.613
lfemur -80.184 -1.82305 -17.0092
ltibia 48.7824
lfoot -13.4871 -11.6723
ltoes -14.4631
206
root -1.04358 16.3318 0.256419 -139.585 67.5401 -185.399
lowerback 201.551 179.357 176.11
upperback -3.557 -0.421421 -1.47669
thorax -16.3461 0.0931308 0.655977
lowerneck -1.24436 -0.685462 -4.79003
upperneck -28.0982 2.54832 8.60647
head -8.64176 1.72018 3.49503
rclavicle 1.2921e-014 1.16587e-013
rhumerus -59.612 28.1907 -78.1738
rradius 81.7066
rwrist -3.86321
rhand 26.4678 10.9091
rfingers 7.12502
rthumb 50.5052 -10.0443
lclavicle 1.2921e-014 1.16587e-013
lhumerus -59.9155 -12.2932 75.9597
lradius 100.061
lwrist 2.6301
lhand 24.3676 42.2448
lfingers 7.12502
lthumb 48.5799 64.1824
rfemur -74.8721 -13.0514 23.8649
rtibia 55.4236
rfoot -22.58 -15.4918
rtoes -24.2188
lfemur -78.7887 -2.15777 -16.6552
ltibia 48.0556
lfoot -13.4494 -11.1927
ltoes -14.6414
207
root -1.00515 16.386 0.237217 -140.091 67.5904 -185.251
lowerback 201.008 179.435 176.529
upperback -4.0477 -0.435108 -1.69426
thorax -16.6206 0.0382945 0.163926
lowerneck -0.933438 -0.657926 -4.46302
upperneck -27.8645 2.57225 8.67653
head -8.61648 1.66558 3.45674
rclavicle 1.22253e-014 -2.77305e-014
rhumerus -59.8541 27.8264 -78.6935
rradius 81.5166
rwrist -3.91968
rhand 26.5863 10.7029
rfingers 7.12502
rthumb 50.6134 -10.1917
lclavicle 1.22253e-014 -2.77305e-014
lhumerus -60.333 -12.6985 75.9336
lradius 100.045
lwrist 2.72892
lhand 24.2245 42.1823
lfingers 7.12502
lthumb 48.4482 64.1832
rfemur -73.3948 -12.8271 23.4915
rtibia 54.5496
rfoot -22.4989 -15.6901
rtoes -23.8966
lfemur -77.4483 -2.51026 -16.2277
ltibia 47.3404
lfoot -13.4483 -10.7253
ltoes -14.3733
208
root -0.964092 16.4423 0.217451 -140.558 67.5334 -185.04
lowerback 200.261 179.465 176.742
upperback -4.392 -0.391877 -1.68521
thorax -16.5859 0.0386924 0.0370694
lowerneck -0.723315 -0.5935 -4.35458
upperneck -27.6463 2.63476 8.71236
head -8.58261 1.66047 3.4427
rclavicle -4.07509e-015 1.98785e-016
rhumerus -59.8452 27.6418 -78.8258
rradius 81.3488
rwrist -3.80717
rhand 26.5614 10.6724
rfingers 7.12502
rthumb 50.5907 -10.2346
lclavicle -4.07509e-015 1.98785e-016
lhumerus -60.5033 -12.8995 76.1696
lradius 100.013
lwrist 2.86755
lhand 23.9697 42.1322
lfingers 7.12502
lthumb 48.2136 64.2447
rfemur -71.865 -12.6602 23.2095
rtibia 53.6609
rfoot -22.4634 -15.8414
rtoes -23.663
lfemur -76.0855 -2.95331 -15.7211
ltibia 46.5974
lfoot -13.4655 -10.2544
ltoes -14.5874
209
root -0.92072 16.5021 0.198114 -141.349 67.568 -185.119
lowerback 199.509 179.465 176.703
upperback -4.66456 -0.365461 -1.64005
thorax -16.4565 0.0588921 0.102705
lowerneck -0.86641 -0.473053 -4.43341
upperneck -27.0922 2.76117 8.84322
head -8.37421 1.70387 3.48461
rclavicle -2.5842e-014 -1.89839e-014
rhumerus -59.7384 27.4709 -78.8231
rradius 81.2181
rwrist -3.64008
rhand 26.3619 10.7868
rfingers 7.12502
rthumb 50.4085 -10.2188
lclavicle -2.5842e-014 -1.89839e-014
lhumerus -60.5212 -12.9273 76.3666
lradius 99.9802
lwrist 2.61313
lhand 24.6744 42.4909
lfingers 7.12502
lthumb 48.8621 64.2913
rfemur -70.2859 -12.5198 22.8042
rtibia 52.7705
rfoot -22.4085 -16.0494
rtoes -23.4629
lfemur -74.5966 -3.36585 -15.4621
ltibia 45.7943
lfoot -13.4944 -9.78578
ltoes -14.8382
